<svg width="20" height="19" viewBox="0 0 20 19" fill="none" xmlns="http://www.w3.org/2000/svg">
<path d="M4.003 9H12.253L9.003 5.75L9.667 5L14.167 9.5L9.667 14L9.003 13.25L12.253 10H4.003V9V9ZM19.003 9.5C19.003 10.7476 18.7573 11.9829 18.2799 13.1355C17.8024 14.2881 17.1027 15.3354 16.2205 16.2175C15.3384 17.0997 14.2911 17.7994 13.1385 18.2769C11.9859 18.7543 10.7506 19 9.503 19C8.25544 19 7.0201 18.7543 5.86751 18.2769C4.71491 17.7994 3.66764 17.0997 2.78548 16.2175C1.90333 15.3354 1.20356 14.2881 0.726143 13.1355C0.248723 11.9829 0.00299833 10.7476 0.00299835 9.5C0.00299839 6.98044 1.00389 4.56408 2.78548 2.78249C4.56708 1.00089 6.98344 0 9.503 0C12.0226 0 14.4389 1.00089 16.2205 2.78249C18.0021 4.56408 19.003 6.98044 19.003 9.5V9.5ZM18.003 9.5C18.003 7.24566 17.1075 5.08365 15.5134 3.48959C13.9193 1.89553 11.7573 1 9.503 1C7.24866 1 5.08665 1.89553 3.49259 3.48959C1.89853 5.08365 1.003 7.24566 1.003 9.5C1.003 11.7543 1.89853 13.9163 3.49259 15.5104C5.08665 17.1045 7.24866 18 9.503 18C11.7573 18 13.9193 17.1045 15.5134 15.5104C17.1075 13.9163 18.003 11.7543 18.003 9.5V9.5Z" fill="black"/>
</svg>
