<svg width="24" height="24" viewBox="0 0 24 24" fill="none" xmlns="http://www.w3.org/2000/svg">
<path d="M11.503 22C8.98343 22 6.56707 20.9991 4.78548 19.2175C3.00388 17.4359 2.00299 15.0196 2.00299 12.5C2.00299 9.98044 3.00388 7.56408 4.78548 5.78249C6.56707 4.00089 8.98343 3 11.503 3C14.0225 3 16.4389 4.00089 18.2205 5.78249C20.0021 7.56408 21.003 9.98044 21.003 12.5C21.003 15.0196 20.0021 17.4359 18.2205 19.2175C16.4389 20.9991 14.0225 22 11.503 22V22ZM11.503 21C13.1417 21 14.7455 20.5262 16.1212 19.6359C17.4969 18.7455 18.586 17.4764 19.2571 15.9814C19.9283 14.4865 20.1531 12.8294 19.9043 11.2097C19.6555 9.58993 18.9439 8.07664 17.855 6.852L5.85499 18.852C7.40944 20.2382 9.42023 21.0029 11.503 21ZM11.503 4C9.86459 3.99997 8.26108 4.47345 6.88549 5.36346C5.5099 6.25347 4.42084 7.52207 3.7494 9.01657C3.07795 10.5111 2.85274 12.1678 3.10087 13.7873C3.349 15.4068 4.0599 16.9201 5.14799 18.145L17.148 6.145C15.5939 4.76056 13.5843 3.99697 11.503 4V4Z" fill="black"/>
</svg>
