<svg width="20" height="20" viewBox="0 0 20 20" fill="none" xmlns="http://www.w3.org/2000/svg">
<path d="M5.83333 10H13.3333V10.8333H5.83333V10ZM9.58333 2.5C11.683 2.5 13.6966 3.33407 15.1813 4.81874C16.6659 6.3034 17.5 8.31704 17.5 10.4167C17.5 12.5163 16.6659 14.5299 15.1813 16.0146C13.6966 17.4993 11.683 18.3333 9.58333 18.3333C7.4837 18.3333 5.47006 17.4993 3.9854 16.0146C2.50074 14.5299 1.66666 12.5163 1.66666 10.4167C1.66666 8.31704 2.50074 6.3034 3.9854 4.81874C5.47006 3.33407 7.4837 2.5 9.58333 2.5ZM9.58333 3.33333C7.70471 3.33333 5.90304 4.07961 4.57466 5.40799C3.24628 6.73638 2.5 8.53805 2.5 10.4167C2.5 12.2953 3.24628 14.097 4.57466 15.4253C5.90304 16.7537 7.70471 17.5 9.58333 17.5C11.4619 17.5 13.2636 16.7537 14.592 15.4253C15.9204 14.097 16.6667 12.2953 16.6667 10.4167C16.6667 8.53805 15.9204 6.73638 14.592 5.40799C13.2636 4.07961 11.4619 3.33333 9.58333 3.33333Z" fill="#393838"/>
</svg>
