<svg width="20" height="20" viewBox="0 0 20 20" fill="none" xmlns="http://www.w3.org/2000/svg">
<path d="M5.83334 10H9.16667V6.66667H10V10H13.3333V10.8333H10V14.1667H9.16667V10.8333H5.83334V10ZM9.58334 2.5C11.683 2.5 13.6966 3.33407 15.1813 4.81874C16.6659 6.3034 17.5 8.31704 17.5 10.4167C17.5 12.5163 16.6659 14.5299 15.1813 16.0146C13.6966 17.4993 11.683 18.3333 9.58334 18.3333C7.48371 18.3333 5.47007 17.4993 3.98541 16.0146C2.50075 14.5299 1.66667 12.5163 1.66667 10.4167C1.66667 8.31704 2.50075 6.3034 3.98541 4.81874C5.47007 3.33407 7.48371 2.5 9.58334 2.5ZM9.58334 3.33333C7.70472 3.33333 5.90305 4.07961 4.57467 5.40799C3.24628 6.73638 2.50001 8.53805 2.50001 10.4167C2.50001 12.2953 3.24628 14.097 4.57467 15.4253C5.90305 16.7537 7.70472 17.5 9.58334 17.5C11.462 17.5 13.2636 16.7537 14.592 15.4253C15.9204 14.097 16.6667 12.2953 16.6667 10.4167C16.6667 8.53805 15.9204 6.73638 14.592 5.40799C13.2636 4.07961 11.462 3.33333 9.58334 3.33333Z" fill="#393838"/>
</svg>
