<svg width="28" height="28" viewBox="0 0 28 28" fill="none" xmlns="http://www.w3.org/2000/svg">
<path d="M14.4167 3.66667C13.1143 3.66674 11.8247 3.92334 10.6215 4.4218C9.41836 4.92026 8.32513 5.65082 7.40428 6.57177C6.48344 7.49273 5.753 8.58604 5.25468 9.78929C4.75637 10.9925 4.49992 12.2821 4.5 13.5845C4.50008 14.8869 4.75667 16.1764 5.25513 17.3796C5.75359 18.5828 6.48415 19.676 7.40511 20.5969C8.32606 21.5177 9.41938 22.2482 10.6226 22.7465C11.8259 23.2448 13.1155 23.5012 14.4178 23.5012C17.0481 23.501 19.5705 22.456 21.4302 20.5961C23.29 18.7361 24.3347 16.2136 24.3345 13.5833C24.3343 10.9531 23.2893 8.43069 21.4294 6.57095C19.5694 4.71121 17.0469 3.66651 14.4167 3.66667V3.66667ZM14.4167 2.5C17.3561 2.5 20.1752 3.6677 22.2538 5.74623C24.3323 7.82476 25.5 10.6439 25.5 13.5833C25.5 16.5228 24.3323 19.3419 22.2538 21.4204C20.1752 23.499 17.3561 24.6667 14.4167 24.6667C11.4772 24.6667 8.6581 23.499 6.57957 21.4204C4.50104 19.3419 3.33333 16.5228 3.33333 13.5833C3.33333 10.6439 4.50104 7.82476 6.57957 5.74623C8.6581 3.6677 11.4772 2.5 14.4167 2.5V2.5ZM13.8333 18.8333H15V21.1667H13.8333V18.8333ZM14.4167 6C15.4996 6 16.5382 6.43021 17.304 7.19598C18.0698 7.96175 18.5 9.00037 18.5 10.0833C18.5 11.1298 17.6845 11.8555 16.8212 12.622L15.7303 13.6755C15.0443 14.4618 14.9697 15.9563 14.9988 16.4662V16.5H13.8333C13.8287 16.4393 13.7143 14.2087 14.853 12.9078L16.0453 11.7505C16.736 11.1368 17.3333 10.606 17.3333 10.0833C17.3333 9.30979 17.026 8.56792 16.4791 8.02094C15.9321 7.47396 15.1902 7.16667 14.4167 7.16667C13.6431 7.16667 12.9013 7.47396 12.3543 8.02094C11.8073 8.56792 11.5 9.30979 11.5 10.0833H10.3333C10.3333 9.00037 10.7635 7.96175 11.5293 7.19598C12.2951 6.43021 13.3337 6 14.4167 6Z" fill="#393838"/>
</svg>
